<?xml version="1.0" encoding="UTF-8"?>
<svg xmlns="http://www.w3.org/2000/svg" width="930" height="446" viewBox="0 0 930 446">
<rect width="100%" height="100%" fill="white"/>
<text x="30" y="35" font-size="20" font-family="Arial">Grafik 6: Heatmap der Dominanzanteile nach Gruppe</text>
<text x="175" y="65" font-size="12" font-family="Arial" text-anchor="middle">kognition</text>
<text x="285" y="65" font-size="12" font-family="Arial" text-anchor="middle">sozial</text>
<text x="395" y="65" font-size="12" font-family="Arial" text-anchor="middle">affektiv</text>
<text x="505" y="65" font-size="12" font-family="Arial" text-anchor="middle">motivation</text>
<text x="615" y="65" font-size="12" font-family="Arial" text-anchor="middle">methodik</text>
<text x="725" y="65" font-size="12" font-family="Arial" text-anchor="middle">performanz</text>
<text x="835" y="65" font-size="12" font-family="Arial" text-anchor="middle">regulation</text>
<text x="105" y="102" font-size="12" font-family="Arial" text-anchor="end">Gruppe 1</text>
<rect x="120" y="80" width="110" height="34" fill="rgb(239,239,239)" stroke="#ffffff"/>
<text x="175" y="102" font-size="11" font-family="Arial" text-anchor="middle">4%</text>
<rect x="230" y="80" width="110" height="34" fill="rgb(227,227,227)" stroke="#ffffff"/>
<text x="285" y="102" font-size="11" font-family="Arial" text-anchor="middle">11%</text>
<rect x="340" y="80" width="110" height="34" fill="rgb(203,203,203)" stroke="#ffffff"/>
<text x="395" y="102" font-size="11" font-family="Arial" text-anchor="middle">25%</text>
<rect x="450" y="80" width="110" height="34" fill="rgb(203,203,203)" stroke="#ffffff"/>
<text x="505" y="102" font-size="11" font-family="Arial" text-anchor="middle">25%</text>
<rect x="560" y="80" width="110" height="34" fill="rgb(203,203,203)" stroke="#ffffff"/>
<text x="615" y="102" font-size="11" font-family="Arial" text-anchor="middle">25%</text>
<rect x="670" y="80" width="110" height="34" fill="rgb(239,239,239)" stroke="#ffffff"/>
<text x="725" y="102" font-size="11" font-family="Arial" text-anchor="middle">4%</text>
<rect x="780" y="80" width="110" height="34" fill="rgb(233,233,233)" stroke="#ffffff"/>
<text x="835" y="102" font-size="11" font-family="Arial" text-anchor="middle">7%</text>
<text x="105" y="136" font-size="12" font-family="Arial" text-anchor="end">Gruppe 2</text>
<rect x="120" y="114" width="110" height="34" fill="rgb(241,241,241)" stroke="#ffffff"/>
<text x="175" y="136" font-size="11" font-family="Arial" text-anchor="middle">2%</text>
<rect x="230" y="114" width="110" height="34" fill="rgb(220,220,220)" stroke="#ffffff"/>
<text x="285" y="136" font-size="11" font-family="Arial" text-anchor="middle">15%</text>
<rect x="340" y="114" width="110" height="34" fill="rgb(198,198,198)" stroke="#ffffff"/>
<text x="395" y="136" font-size="11" font-family="Arial" text-anchor="middle">28%</text>
<rect x="450" y="114" width="110" height="34" fill="rgb(220,220,220)" stroke="#ffffff"/>
<text x="505" y="136" font-size="11" font-family="Arial" text-anchor="middle">15%</text>
<rect x="560" y="114" width="110" height="34" fill="rgb(180,180,180)" stroke="#ffffff"/>
<text x="615" y="136" font-size="11" font-family="Arial" text-anchor="middle">38%</text>
<rect x="670" y="114" width="110" height="34" fill="rgb(245,245,245)" stroke="#ffffff"/>
<text x="725" y="136" font-size="11" font-family="Arial" text-anchor="middle">0%</text>
<rect x="780" y="114" width="110" height="34" fill="rgb(241,241,241)" stroke="#ffffff"/>
<text x="835" y="136" font-size="11" font-family="Arial" text-anchor="middle">2%</text>
<text x="105" y="170" font-size="12" font-family="Arial" text-anchor="end">Gruppe 3</text>
<rect x="120" y="148" width="110" height="34" fill="rgb(172,172,172)" stroke="#ffffff"/>
<text x="175" y="170" font-size="11" font-family="Arial" text-anchor="middle">43%</text>
<rect x="230" y="148" width="110" height="34" fill="rgb(245,245,245)" stroke="#ffffff"/>
<text x="285" y="170" font-size="11" font-family="Arial" text-anchor="middle">0%</text>
<rect x="340" y="148" width="110" height="34" fill="rgb(172,172,172)" stroke="#ffffff"/>
<text x="395" y="170" font-size="11" font-family="Arial" text-anchor="middle">43%</text>
<rect x="450" y="148" width="110" height="34" fill="rgb(245,245,245)" stroke="#ffffff"/>
<text x="505" y="170" font-size="11" font-family="Arial" text-anchor="middle">0%</text>
<rect x="560" y="148" width="110" height="34" fill="rgb(221,221,221)" stroke="#ffffff"/>
<text x="615" y="170" font-size="11" font-family="Arial" text-anchor="middle">14%</text>
<rect x="670" y="148" width="110" height="34" fill="rgb(245,245,245)" stroke="#ffffff"/>
<text x="725" y="170" font-size="11" font-family="Arial" text-anchor="middle">0%</text>
<rect x="780" y="148" width="110" height="34" fill="rgb(245,245,245)" stroke="#ffffff"/>
<text x="835" y="170" font-size="11" font-family="Arial" text-anchor="middle">0%</text>
<text x="105" y="204" font-size="12" font-family="Arial" text-anchor="end">Gruppe 4</text>
<rect x="120" y="182" width="110" height="34" fill="rgb(241,241,241)" stroke="#ffffff"/>
<text x="175" y="204" font-size="11" font-family="Arial" text-anchor="middle">2%</text>
<rect x="230" y="182" width="110" height="34" fill="rgb(227,227,227)" stroke="#ffffff"/>
<text x="285" y="204" font-size="11" font-family="Arial" text-anchor="middle">11%</text>
<rect x="340" y="182" width="110" height="34" fill="rgb(208,208,208)" stroke="#ffffff"/>
<text x="395" y="204" font-size="11" font-family="Arial" text-anchor="middle">22%</text>
<rect x="450" y="182" width="110" height="34" fill="rgb(212,212,212)" stroke="#ffffff"/>
<text x="505" y="204" font-size="11" font-family="Arial" text-anchor="middle">20%</text>
<rect x="560" y="182" width="110" height="34" fill="rgb(197,197,197)" stroke="#ffffff"/>
<text x="615" y="204" font-size="11" font-family="Arial" text-anchor="middle">28%</text>
<rect x="670" y="182" width="110" height="34" fill="rgb(241,241,241)" stroke="#ffffff"/>
<text x="725" y="204" font-size="11" font-family="Arial" text-anchor="middle">2%</text>
<rect x="780" y="182" width="110" height="34" fill="rgb(219,219,219)" stroke="#ffffff"/>
<text x="835" y="204" font-size="11" font-family="Arial" text-anchor="middle">15%</text>
<text x="105" y="238" font-size="12" font-family="Arial" text-anchor="end">Gruppe 5</text>
<rect x="120" y="216" width="110" height="34" fill="rgb(227,227,227)" stroke="#ffffff"/>
<text x="175" y="238" font-size="11" font-family="Arial" text-anchor="middle">11%</text>
<rect x="230" y="216" width="110" height="34" fill="rgb(232,232,232)" stroke="#ffffff"/>
<text x="285" y="238" font-size="11" font-family="Arial" text-anchor="middle">8%</text>
<rect x="340" y="216" width="110" height="34" fill="rgb(173,173,173)" stroke="#ffffff"/>
<text x="395" y="238" font-size="11" font-family="Arial" text-anchor="middle">42%</text>
<rect x="450" y="216" width="110" height="34" fill="rgb(209,209,209)" stroke="#ffffff"/>
<text x="505" y="238" font-size="11" font-family="Arial" text-anchor="middle">21%</text>
<rect x="560" y="216" width="110" height="34" fill="rgb(232,232,232)" stroke="#ffffff"/>
<text x="615" y="238" font-size="11" font-family="Arial" text-anchor="middle">8%</text>
<rect x="670" y="216" width="110" height="34" fill="rgb(245,245,245)" stroke="#ffffff"/>
<text x="725" y="238" font-size="11" font-family="Arial" text-anchor="middle">0%</text>
<rect x="780" y="216" width="110" height="34" fill="rgb(227,227,227)" stroke="#ffffff"/>
<text x="835" y="238" font-size="11" font-family="Arial" text-anchor="middle">11%</text>
<text x="105" y="272" font-size="12" font-family="Arial" text-anchor="end">Gruppe 6</text>
<rect x="120" y="250" width="110" height="34" fill="rgb(241,241,241)" stroke="#ffffff"/>
<text x="175" y="272" font-size="11" font-family="Arial" text-anchor="middle">3%</text>
<rect x="230" y="250" width="110" height="34" fill="rgb(214,214,214)" stroke="#ffffff"/>
<text x="285" y="272" font-size="11" font-family="Arial" text-anchor="middle">18%</text>
<rect x="340" y="250" width="110" height="34" fill="rgb(206,206,206)" stroke="#ffffff"/>
<text x="395" y="272" font-size="11" font-family="Arial" text-anchor="middle">23%</text>
<rect x="450" y="250" width="110" height="34" fill="rgb(236,236,236)" stroke="#ffffff"/>
<text x="505" y="272" font-size="11" font-family="Arial" text-anchor="middle">5%</text>
<rect x="560" y="250" width="110" height="34" fill="rgb(184,184,184)" stroke="#ffffff"/>
<text x="615" y="272" font-size="11" font-family="Arial" text-anchor="middle">36%</text>
<rect x="670" y="250" width="110" height="34" fill="rgb(245,245,245)" stroke="#ffffff"/>
<text x="725" y="272" font-size="11" font-family="Arial" text-anchor="middle">0%</text>
<rect x="780" y="250" width="110" height="34" fill="rgb(219,219,219)" stroke="#ffffff"/>
<text x="835" y="272" font-size="11" font-family="Arial" text-anchor="middle">15%</text>
<text x="105" y="306" font-size="12" font-family="Arial" text-anchor="end">Gruppe 7</text>
<rect x="120" y="284" width="110" height="34" fill="rgb(240,240,240)" stroke="#ffffff"/>
<text x="175" y="306" font-size="11" font-family="Arial" text-anchor="middle">3%</text>
<rect x="230" y="284" width="110" height="34" fill="rgb(205,205,205)" stroke="#ffffff"/>
<text x="285" y="306" font-size="11" font-family="Arial" text-anchor="middle">24%</text>
<rect x="340" y="284" width="110" height="34" fill="rgb(185,185,185)" stroke="#ffffff"/>
<text x="395" y="306" font-size="11" font-family="Arial" text-anchor="middle">35%</text>
<rect x="450" y="284" width="110" height="34" fill="rgb(220,220,220)" stroke="#ffffff"/>
<text x="505" y="306" font-size="11" font-family="Arial" text-anchor="middle">15%</text>
<rect x="560" y="284" width="110" height="34" fill="rgb(215,215,215)" stroke="#ffffff"/>
<text x="615" y="306" font-size="11" font-family="Arial" text-anchor="middle">18%</text>
<rect x="670" y="284" width="110" height="34" fill="rgb(245,245,245)" stroke="#ffffff"/>
<text x="725" y="306" font-size="11" font-family="Arial" text-anchor="middle">0%</text>
<rect x="780" y="284" width="110" height="34" fill="rgb(235,235,235)" stroke="#ffffff"/>
<text x="835" y="306" font-size="11" font-family="Arial" text-anchor="middle">6%</text>
<text x="105" y="340" font-size="12" font-family="Arial" text-anchor="end">Gruppe 8</text>
<rect x="120" y="318" width="110" height="34" fill="rgb(232,232,232)" stroke="#ffffff"/>
<text x="175" y="340" font-size="11" font-family="Arial" text-anchor="middle">8%</text>
<rect x="230" y="318" width="110" height="34" fill="rgb(245,245,245)" stroke="#ffffff"/>
<text x="285" y="340" font-size="11" font-family="Arial" text-anchor="middle">0%</text>
<rect x="340" y="318" width="110" height="34" fill="rgb(203,203,203)" stroke="#ffffff"/>
<text x="395" y="340" font-size="11" font-family="Arial" text-anchor="middle">25%</text>
<rect x="450" y="318" width="110" height="34" fill="rgb(207,207,207)" stroke="#ffffff"/>
<text x="505" y="340" font-size="11" font-family="Arial" text-anchor="middle">23%</text>
<rect x="560" y="318" width="110" height="34" fill="rgb(190,190,190)" stroke="#ffffff"/>
<text x="615" y="340" font-size="11" font-family="Arial" text-anchor="middle">32%</text>
<rect x="670" y="318" width="110" height="34" fill="rgb(242,242,242)" stroke="#ffffff"/>
<text x="725" y="340" font-size="11" font-family="Arial" text-anchor="middle">2%</text>
<rect x="780" y="318" width="110" height="34" fill="rgb(226,226,226)" stroke="#ffffff"/>
<text x="835" y="340" font-size="11" font-family="Arial" text-anchor="middle">11%</text>
<text x="105" y="374" font-size="12" font-family="Arial" text-anchor="end">Gruppe 9</text>
<rect x="120" y="352" width="110" height="34" fill="rgb(245,245,245)" stroke="#ffffff"/>
<text x="175" y="374" font-size="11" font-family="Arial" text-anchor="middle">0%</text>
<rect x="230" y="352" width="110" height="34" fill="rgb(215,215,215)" stroke="#ffffff"/>
<text x="285" y="374" font-size="11" font-family="Arial" text-anchor="middle">18%</text>
<rect x="340" y="352" width="110" height="34" fill="rgb(190,190,190)" stroke="#ffffff"/>
<text x="395" y="374" font-size="11" font-family="Arial" text-anchor="middle">32%</text>
<rect x="450" y="352" width="110" height="34" fill="rgb(225,225,225)" stroke="#ffffff"/>
<text x="505" y="374" font-size="11" font-family="Arial" text-anchor="middle">12%</text>
<rect x="560" y="352" width="110" height="34" fill="rgb(200,200,200)" stroke="#ffffff"/>
<text x="615" y="374" font-size="11" font-family="Arial" text-anchor="middle">26%</text>
<rect x="670" y="352" width="110" height="34" fill="rgb(245,245,245)" stroke="#ffffff"/>
<text x="725" y="374" font-size="11" font-family="Arial" text-anchor="middle">0%</text>
<rect x="780" y="352" width="110" height="34" fill="rgb(225,225,225)" stroke="#ffffff"/>
<text x="835" y="374" font-size="11" font-family="Arial" text-anchor="middle">12%</text>

</svg>
